<?xml version="1.0" encoding="UTF-8" ?>
<!DOCTYPE svg PUBLIC "-//W3C//DTD SVG 1.1//EN" "http://www.w3.org/Graphics/SVG/1.1/DTD/svg11.dtd">
<svg width="4500pt" height="2814pt" viewBox="0 0 4500 2814" version="1.1" xmlns="http://www.w3.org/2000/svg">
<g id="#ffffffff">
</g>
<g id="#fec107ff">
<path fill="#fec107" opacity="1.00" d=" M 3900.06 2.80 C 3919.35 1.42 3938.71 1.50 3958.04 1.55 C 4125.04 1.44 4292.03 1.52 4459.02 1.51 C 4463.02 1.74 4467.07 0.92 4471.09 1.58 C 4425.20 4.74 4378.89 9.42 4334.94 23.69 C 4248.92 50.51 4172.07 104.74 4116.49 175.48 C 4094.85 203.60 4075.13 233.15 4053.19 261.04 C 4007.04 323.30 3960.86 385.53 3915.26 448.18 C 3823.19 573.14 3730.84 697.88 3638.76 822.83 C 3627.99 837.39 3617.18 851.93 3606.76 866.73 C 3594.84 883.14 3582.48 899.20 3570.33 915.43 C 3547.49 946.21 3524.63 976.98 3501.41 1007.47 C 3495.17 1015.31 3489.36 1023.51 3482.72 1030.99 C 3439.38 914.50 3394.92 798.42 3352.05 681.74 C 3337.96 644.29 3324.83 606.47 3310.32 569.17 C 3333.75 537.36 3354.84 503.91 3377.51 471.57 C 3455.96 357.62 3535.31 244.29 3615.31 131.42 C 3623.32 119.03 3634.90 109.58 3645.77 99.80 C 3697.15 55.96 3760.58 27.69 3826.28 13.33 C 3850.56 8.01 3875.25 4.55 3900.06 2.80 Z" />
<path fill="#fec107" opacity="1.00" d=" M 3345.36 1219.42 C 3391.11 1156.71 3437.25 1094.27 3482.89 1031.47 C 3511.87 1104.46 3541.68 1177.13 3571.09 1249.96 C 3680.07 1519.18 3788.20 1788.76 3896.83 2058.13 C 3899.41 2064.09 3902.01 2070.10 3903.43 2076.49 C 3733.53 2076.45 3563.62 2076.30 3393.73 2076.55 C 3360.42 1999.15 3328.04 1921.34 3295.40 1843.65 C 3245.84 1725.67 3196.75 1607.49 3147.72 1489.28 C 3166.94 1462.71 3186.45 1436.34 3205.79 1409.85 C 3252.30 1346.37 3298.73 1282.82 3345.36 1219.42 Z" />
</g>
<g id="#01bfa5ff">
<path fill="#01bfa5" opacity="1.00" d=" M 2555.69 2.53 C 2730.12 2.47 2904.55 2.52 3078.98 2.50 C 3085.29 2.72 3091.68 2.07 3097.96 3.02 C 3143.33 127.08 3189.73 250.78 3236.67 374.26 C 3251.79 413.83 3266.65 453.50 3282.15 492.92 C 3291.88 518.21 3300.65 543.86 3310.32 569.17 C 3324.83 606.47 3337.96 644.29 3352.05 681.74 C 3394.92 798.42 3439.38 914.50 3482.72 1030.99 C 3482.76 1031.11 3482.85 1031.35 3482.89 1031.47 C 3437.25 1094.27 3391.11 1156.71 3345.36 1219.42 C 3298.73 1282.82 3252.30 1346.37 3205.79 1409.85 C 3186.45 1436.34 3166.94 1462.71 3147.72 1489.28 C 3136.79 1504.19 3125.88 1519.10 3114.96 1534.01 C 3101.04 1552.65 3089.07 1572.65 3075.58 1591.60 C 2991.79 1699.84 2908.94 1808.81 2824.33 1916.43 C 2782.78 1970.50 2725.89 2011.79 2663.40 2038.47 C 2606.78 2062.56 2545.48 2075.45 2483.97 2076.49 C 2309.58 2076.49 2135.19 2076.53 1960.81 2076.47 C 2003.87 2070.87 2047.19 2064.08 2088.22 2049.35 C 2124.15 2036.65 2158.31 2019.13 2189.90 1997.85 C 2218.24 1978.83 2243.86 1956.01 2267.33 1931.29 C 2316.47 1879.55 2356.48 1820.23 2399.69 1763.68 C 2424.63 1730.63 2449.78 1697.74 2474.73 1664.70 C 2570.95 1536.95 2667.32 1409.31 2763.67 1281.66 C 2823.78 1202.10 2883.94 1122.58 2944.26 1043.19 C 2945.20 1042.00 2945.42 1040.39 2944.78 1039.02 C 2817.84 699.40 2690.40 359.97 2562.08 20.87 C 2560.04 14.72 2556.86 8.93 2555.69 2.53 Z" />
</g>
<g id="#000000ff">
<path fill="#000000" opacity="1.00" d=" M 1487.47 132.64 C 1509.59 131.08 1531.98 134.56 1552.74 142.30 C 1578.59 151.96 1599.48 172.23 1613.05 195.95 C 1618.27 205.15 1622.63 214.89 1625.64 225.04 C 1633.13 260.76 1626.39 298.61 1609.93 330.91 C 1585.72 378.51 1541.11 415.62 1489.45 429.58 C 1467.50 435.58 1444.36 436.67 1421.86 433.63 C 1387.39 428.37 1355.66 407.38 1337.34 377.71 C 1329.69 365.39 1324.62 351.51 1322.57 337.15 C 1318.72 314.34 1319.10 290.62 1325.44 268.28 C 1343.09 204.02 1397.90 151.87 1462.63 136.52 C 1470.80 134.61 1479.10 133.23 1487.47 132.64 Z" />
<path fill="#000000" opacity="1.00" d=" M 1840.05 149.99 C 1841.43 143.92 1841.55 137.50 1843.80 131.67 C 1942.04 132.10 2040.28 131.79 2138.52 131.65 C 2121.76 230.08 2104.21 328.36 2087.06 426.72 C 2217.06 427.15 2347.06 426.90 2477.06 426.88 C 2460.30 528.32 2441.66 629.44 2424.12 730.75 C 2309.40 731.07 2194.68 730.54 2079.97 730.93 C 2064.38 731.15 2048.79 730.43 2033.23 731.33 C 1984.05 1012.21 1934.70 1293.07 1885.22 1573.90 C 1855.68 1741.44 1826.26 1909.02 1796.53 2076.53 C 1698.25 2076.43 1599.95 2076.51 1501.67 2076.54 C 1505.42 2051.70 1509.90 2026.97 1514.39 2002.25 C 1623.03 1384.85 1731.69 767.45 1840.05 149.99 Z" />
<path fill="#000000" opacity="1.00" d=" M 831.67 600.99 C 930.06 601.05 1028.45 601.04 1126.85 601.00 C 1110.75 694.01 1094.22 786.97 1077.96 879.96 C 1005.90 1290.32 933.78 1700.68 861.66 2111.03 C 858.79 2127.46 853.95 2143.44 848.20 2159.07 C 828.55 2214.79 804.42 2268.96 775.56 2320.53 C 727.46 2406.19 666.45 2484.61 595.22 2552.27 C 440.36 2699.74 235.19 2793.81 22.03 2812.84 C 15.01 2813.42 7.94 2813.55 0.91 2813.16 C 0.01 2807.18 1.62 2801.29 2.60 2795.45 C 11.66 2743.64 20.75 2691.83 29.87 2640.03 C 37.23 2599.81 43.48 2559.38 51.55 2519.29 C 158.94 2517.91 264.61 2481.44 352.81 2420.77 C 401.03 2387.70 444.67 2347.71 480.68 2301.58 C 520.26 2251.10 550.40 2192.30 562.81 2129.07 C 646.83 1653.05 730.20 1176.91 814.23 700.88 C 820.00 667.58 826.20 634.34 831.67 600.99 Z" />
<path fill="#000000" opacity="1.00" d=" M 1182.45 601.65 C 1184.88 600.74 1187.52 601.05 1190.08 600.99 C 1250.72 601.01 1311.37 601.00 1372.02 601.00 C 1396.35 601.07 1420.68 600.83 1445.00 601.18 C 1482.56 601.83 1518.31 623.47 1538.13 655.07 C 1547.89 670.32 1553.35 688.05 1555.08 706.00 C 1556.64 725.20 1552.59 744.18 1549.57 763.03 C 1533.77 858.49 1516.37 953.68 1499.93 1049.04 C 1458.56 1284.38 1417.17 1519.71 1375.80 1755.05 C 1369.84 1788.32 1364.34 1821.68 1358.20 1854.92 C 1352.15 1888.12 1346.34 1921.45 1343.65 1955.12 C 1342.53 1965.75 1342.94 1976.56 1345.28 1987.02 C 1352.19 2018.67 1374.07 2046.38 1402.66 2061.39 C 1414.18 2067.49 1426.36 2072.96 1439.22 2075.40 C 1433.56 2076.60 1427.72 2075.73 1422.00 2076.00 C 1350.33 2076.00 1278.66 2076.00 1206.99 2076.00 C 1191.98 2075.75 1176.73 2076.98 1162.04 2073.18 C 1129.05 2065.34 1100.16 2042.25 1084.81 2012.08 C 1076.40 1995.49 1072.17 1976.56 1074.08 1957.98 C 1077.43 1913.93 1085.92 1870.51 1093.76 1827.11 C 1155.53 1470.91 1220.23 1115.22 1280.57 758.78 C 1282.36 747.84 1284.38 736.93 1286.04 725.98 C 1289.74 687.76 1271.58 648.88 1241.46 625.50 C 1228.54 615.09 1212.95 608.50 1196.99 604.36 C 1192.19 603.19 1187.40 601.88 1182.45 601.65 Z" />
</g>
</svg>
